<?xml version="1.0" encoding="UTF-8"?>
<!DOCTYPE svg PUBLIC "-//W3C//DTD SVG 1.1//EN" "http://www.w3.org/Graphics/SVG/1.1/DTD/svg11.dtd">
<svg xmlns="http://www.w3.org/2000/svg" version="1.1" width="500px" height="500px" style="shape-rendering:geometricPrecision; text-rendering:geometricPrecision; image-rendering:optimizeQuality; fill-rule:evenodd; clip-rule:evenodd" xmlns:xlink="http://www.w3.org/1999/xlink">
<g><path style="opacity:1" fill="#fefefe" d="M -0.5,-0.5 C 166.167,-0.5 332.833,-0.5 499.5,-0.5C 499.5,166.167 499.5,332.833 499.5,499.5C 332.833,499.5 166.167,499.5 -0.5,499.5C -0.5,332.833 -0.5,166.167 -0.5,-0.5 Z"/></g>
<g><path style="opacity:1" fill="#f9d6a9" d="M 99.5,195.5 C 103.988,194.834 108.654,194.501 113.5,194.5C 120.404,194.308 127.07,194.975 133.5,196.5C 122.187,195.674 110.854,195.34 99.5,195.5 Z"/></g>
<g><path style="opacity:1" fill="#f7cb90" d="M 99.5,195.5 C 110.854,195.34 122.187,195.674 133.5,196.5C 142.148,197.504 150.148,200.171 157.5,204.5C 157.688,222.356 157.022,240.023 155.5,257.5C 156.143,246.448 155.476,235.781 153.5,225.5C 130.87,221.816 109.204,224.65 88.5,234C 83.4123,237.083 78.9123,240.917 75,245.5C 71.3911,263.051 77.2244,276.218 92.5,285C 98.9252,288.213 105.259,291.379 111.5,294.5C 110.609,295.11 109.609,295.443 108.5,295.5C 98.9643,292.066 89.9643,287.566 81.5,282C 75.4651,276.096 71.9651,268.93 71,260.5C 70.3333,241.833 70.3333,223.167 71,204.5C 79.8043,199.351 89.3043,196.351 99.5,195.5 Z"/></g>
<g><path style="opacity:1" fill="#f7cc93" d="M 224.5,256.5 C 217.468,256.83 210.468,256.497 203.5,255.5C 204.602,254.824 205.602,254.158 206.5,253.5C 208.722,253.441 209.722,252.275 209.5,250C 208.764,245.46 207.431,241.127 205.5,237C 198.476,236.169 191.476,236.336 184.5,237.5C 181.812,242.186 180.979,247.186 182,252.5C 184.311,253.397 186.144,254.73 187.5,256.5C 181.402,257.117 175.735,256.45 170.5,254.5C 173.397,253.442 175.564,251.442 177,248.5C 182.2,231.734 187.7,215.067 193.5,198.5C 196.185,196.17 198.685,196.17 201,198.5C 206.714,216.262 212.714,233.929 219,251.5C 220.936,253.254 222.77,254.921 224.5,256.5 Z"/></g>
<g><path style="opacity:1" fill="#f7cc92" d="M 296.5,256.5 C 288.804,256.831 281.138,256.497 273.5,255.5C 274.949,254.828 276.282,254.161 277.5,253.5C 279.446,252.965 280.446,251.632 280.5,249.5C 281.827,233.995 281.827,218.328 280.5,202.5C 279.893,202.624 279.56,202.957 279.5,203.5C 273.596,221.558 266.929,239.224 259.5,256.5C 252.065,239.874 245.399,222.874 239.5,205.5C 239.539,204.244 239.039,203.244 238,202.5C 237.173,217.006 237.339,231.339 238.5,245.5C 238.09,250.661 240.424,253.327 245.5,253.5C 245.5,254.833 245.5,256.167 245.5,257.5C 239.167,257.5 232.833,257.5 226.5,257.5C 226.5,256.167 226.5,254.833 226.5,253.5C 230.09,253.456 232.59,251.789 234,248.5C 234.667,233.167 234.667,217.833 234,202.5C 231.865,200.722 229.365,200.055 226.5,200.5C 226.5,199.5 226.5,198.5 226.5,197.5C 232.425,197.192 238.259,197.525 244,198.5C 249.667,213.5 255.333,228.5 261,243.5C 267.118,228.712 272.785,213.712 278,198.5C 284.076,197.524 290.242,197.19 296.5,197.5C 296.5,198.5 296.5,199.5 296.5,200.5C 294.473,200.338 292.473,200.505 290.5,201C 289.874,201.75 289.374,202.584 289,203.5C 288.333,219.167 288.333,234.833 289,250.5C 289.465,251.931 290.299,253.097 291.5,254C 293.744,254.05 295.411,254.883 296.5,256.5 Z"/></g>
<g><path style="opacity:1" fill="#f7cd96" d="M 359.5,200.5 C 364.651,199.673 369.984,199.173 375.5,199C 361.5,198.333 347.5,198.333 333.5,199C 338.684,199.174 343.684,199.674 348.5,200.5C 345.351,200.211 342.351,200.711 339.5,202C 335.864,206.15 331.864,209.65 327.5,212.5C 328.516,207.775 329.849,203.108 331.5,198.5C 346.5,197.167 361.5,197.167 376.5,198.5C 378.422,203.007 379.755,207.674 380.5,212.5C 376.47,209.986 372.804,206.819 369.5,203C 366.464,200.994 363.131,200.16 359.5,200.5 Z"/></g>
<g><path style="opacity:1" fill="#f7cc94" d="M 381.5,197.5 C 388.5,197.5 395.5,197.5 402.5,197.5C 402.5,198.5 402.5,199.5 402.5,200.5C 400.5,200.5 398.5,200.5 396.5,200.5C 399.563,209.962 403.729,218.962 409,227.5C 412.333,220.833 415.667,214.167 419,207.5C 420.713,202.801 419.213,200.468 414.5,200.5C 414.5,199.5 414.5,198.5 414.5,197.5C 420.167,197.5 425.833,197.5 431.5,197.5C 431.5,198.5 431.5,199.5 431.5,200.5C 428.737,200.744 426.571,202.077 425,204.5C 420.348,213.135 415.681,221.802 411,230.5C 410.333,237.167 410.333,243.833 411,250.5C 411.374,251.416 411.874,252.25 412.5,253C 414.473,253.495 416.473,253.662 418.5,253.5C 418.5,254.5 418.5,255.5 418.5,256.5C 410.833,256.5 403.167,256.5 395.5,256.5C 395.5,255.5 395.5,254.5 395.5,253.5C 397.792,253.756 399.959,253.423 402,252.5C 402.667,245.167 402.667,237.833 402,230.5C 397.078,221.657 392.412,212.657 388,203.5C 386.491,201.081 384.325,200.081 381.5,200.5C 381.5,199.5 381.5,198.5 381.5,197.5 Z"/></g>
<g><path style="opacity:1" fill="#f7cb91" d="M 324.5,256.5 C 316.804,256.831 309.138,256.497 301.5,255.5C 302.949,254.828 304.282,254.161 305.5,253.5C 306.458,253.047 307.292,252.381 308,251.5C 308.667,235.167 308.667,218.833 308,202.5C 305.865,200.722 303.365,200.055 300.5,200.5C 300.5,199.5 300.5,198.5 300.5,197.5C 308.5,197.5 316.5,197.5 324.5,197.5C 324.5,198.5 324.5,199.5 324.5,200.5C 321.635,200.055 319.135,200.722 317,202.5C 316.333,218.5 316.333,234.5 317,250.5C 317.465,251.931 318.299,253.097 319.5,254C 321.744,254.05 323.411,254.883 324.5,256.5 Z"/></g>
<g><path style="opacity:1" fill="#f6ca8e" d="M 359.5,200.5 C 358.883,200.611 358.383,200.944 358,201.5C 357.333,217.833 357.333,234.167 358,250.5C 358.465,251.931 359.299,253.097 360.5,254C 362.744,254.05 364.411,254.883 365.5,256.5C 357.427,257.132 349.76,256.465 342.5,254.5C 346.499,254.926 348.999,253.259 350,249.5C 350.667,233.5 350.667,217.5 350,201.5C 349.617,200.944 349.117,200.611 348.5,200.5C 343.684,199.674 338.684,199.174 333.5,199C 347.5,198.333 361.5,198.333 375.5,199C 369.984,199.173 364.651,199.673 359.5,200.5 Z"/></g>
<g><path style="opacity:1" fill="#fdf9f3" d="M 126.5,211.5 C 125.5,212.833 124.5,212.833 123.5,211.5C 124.321,208.359 124.821,205.025 125,201.5C 125.179,205.025 125.679,208.359 126.5,211.5 Z"/></g>
<g><path style="opacity:1" fill="#fae1c2" d="M 117.5,202.5 C 116.757,204.909 116.091,207.909 115.5,211.5C 115.789,207.894 115.456,204.394 114.5,201C 116.167,200.333 117.833,200.333 119.5,201C 118.956,201.717 118.289,202.217 117.5,202.5 Z"/></g>
<g><path style="opacity:1" fill="#fefaf5" d="M 117.5,202.5 C 117.216,205.777 117.549,208.943 118.5,212C 117.251,212.74 116.251,212.573 115.5,211.5C 116.091,207.909 116.757,204.909 117.5,202.5 Z"/></g>
<g><path style="opacity:1" fill="#f9ddb9" d="M 126.5,211.5 C 125.679,208.359 125.179,205.025 125,201.5C 124.821,205.025 124.321,208.359 123.5,211.5C 123.665,208.15 123.498,204.817 123,201.5C 121.092,204.332 120.259,203.999 120.5,200.5C 123.5,200.5 126.5,200.5 129.5,200.5C 129.741,203.999 128.908,204.332 127,201.5C 126.502,204.817 126.335,208.15 126.5,211.5 Z"/></g>
<g><path style="opacity:1" fill="#fbe6cc" d="M 136.5,211.5 C 135.983,209.49 135.316,208.157 134.5,207.5C 133.067,205.481 131.733,203.314 130.5,201C 131.833,200.333 133.167,200.333 134.5,201C 133.397,202.68 133.73,204.18 135.5,205.5C 137.27,204.18 137.603,202.68 136.5,201C 137.635,200.251 138.635,200.417 139.5,201.5C 137.332,204.498 136.332,207.831 136.5,211.5 Z"/></g>
<g><path style="opacity:1" fill="#fcedd9" d="M 100.5,201.5 C 101.542,200.209 102.708,200.209 104,201.5C 104.725,203.949 105.725,206.283 107,208.5C 108,206.167 109,203.833 110,201.5C 111.049,200.483 112.216,200.316 113.5,201C 112.167,204.667 112.167,208.333 113.5,212C 112.167,212.667 110.833,212.667 109.5,212C 110.602,209.599 110.769,207.099 110,204.5C 109.311,207.408 108.145,210.075 106.5,212.5C 105.611,209.721 104.444,207.055 103,204.5C 102.231,207.099 102.398,209.599 103.5,212C 102.5,212.667 101.5,212.667 100.5,212C 101.82,208.399 101.82,204.899 100.5,201.5 Z"/></g>
<g><path style="opacity:1" fill="#fae3c3" d="M 239.5,205.5 C 238.504,218.656 238.171,231.99 238.5,245.5C 237.339,231.339 237.173,217.006 238,202.5C 239.039,203.244 239.539,204.244 239.5,205.5 Z"/></g>
<g><path style="opacity:1" fill="#f7cc94" d="M 94.5,204.5 C 95.1098,205.391 95.4431,206.391 95.5,207.5C 91.9993,207.649 91.6659,206.649 94.5,204.5 Z"/></g>
<g><path style="opacity:1" fill="#fdf2e5" d="M 96.5,209.5 C 96.1667,208.833 95.8333,208.167 95.5,207.5C 95.4431,206.391 95.1098,205.391 94.5,204.5C 94.1667,203.833 93.8333,203.167 93.5,202.5C 94.0768,201.227 94.7435,201.227 95.5,202.5C 96.7598,205.717 98.0931,208.884 99.5,212C 98.552,212.483 97.552,212.649 96.5,212.5C 96.5,211.5 96.5,210.5 96.5,209.5 Z"/></g>
<g><path style="opacity:1" fill="#fefaf6" d="M 136.5,211.5 C 135.749,212.573 134.749,212.74 133.5,212C 134.38,210.644 134.714,209.144 134.5,207.5C 135.316,208.157 135.983,209.49 136.5,211.5 Z"/></g>
<g><path style="opacity:1" fill="#fefcf9" d="M 194.5,205.5 C 198.254,214.154 201.254,223.154 203.5,232.5C 197.833,232.5 192.167,232.5 186.5,232.5C 188.355,223.267 191.022,214.267 194.5,205.5 Z"/></g>
<g><path style="opacity:1" fill="#fbe4c8" d="M 93.5,202.5 C 93.8333,203.167 94.1667,203.833 94.5,204.5C 91.6659,206.649 91.9993,207.649 95.5,207.5C 95.8333,208.167 96.1667,208.833 96.5,209.5C 94.712,209.215 93.0453,209.548 91.5,210.5C 92.5628,212.366 91.8961,212.866 89.5,212C 90.7568,208.709 92.0901,205.542 93.5,202.5 Z"/></g>
<g><path style="opacity:1" fill="#f8d5a8" d="M 279.5,203.5 C 279.56,202.957 279.893,202.624 280.5,202.5C 281.827,218.328 281.827,233.995 280.5,249.5C 280.83,233.991 280.496,218.658 279.5,203.5 Z"/></g>
<g><path style="opacity:1" fill="#fadfbc" d="M 89.5,214.5 C 90.6935,214.97 91.3601,215.97 91.5,217.5C 91.3333,218.5 91.1667,219.5 91,220.5C 89.6814,218.75 89.1814,216.75 89.5,214.5 Z"/></g>
<g><path style="opacity:1" fill="#fadebb" d="M 103.5,214.5 C 103.637,221.626 102.97,221.959 101.5,215.5C 100.548,217.045 100.215,218.712 100.5,220.5C 99.5416,220.047 98.7083,219.381 98,218.5C 97.6924,219.308 97.1924,219.975 96.5,220.5C 95.3615,213.927 94.5282,213.927 94,220.5C 93.5045,218.527 93.3379,216.527 93.5,214.5C 96.2385,213.965 98.0718,214.965 99,217.5C 99.4828,216.552 99.6495,215.552 99.5,214.5C 100.833,214.5 102.167,214.5 103.5,214.5 Z"/></g>
<g><path style="opacity:1" fill="#f8d4a4" d="M 103.5,214.5 C 104.5,214.5 105.5,214.5 106.5,214.5C 106.66,218.236 107.493,218.236 109,214.5C 109.507,216.835 108.84,218.835 107,220.5C 105.956,219.377 105.29,218.044 105,216.5C 104.506,218.134 104.34,219.801 104.5,221.5C 103.041,221.567 101.708,221.234 100.5,220.5C 100.215,218.712 100.548,217.045 101.5,215.5C 102.97,221.959 103.637,221.626 103.5,214.5 Z"/></g>
<g><path style="opacity:1" fill="#fcedda" d="M 117.5,214.5 C 117.285,216.179 117.952,217.179 119.5,217.5C 119.5,217.833 119.5,218.167 119.5,218.5C 118.25,218.577 117.417,219.244 117,220.5C 116.601,220.272 116.435,219.938 116.5,219.5C 116.216,217.585 116.549,215.919 117.5,214.5 Z"/></g>
<g><path style="opacity:1" fill="#fadeba" d="M 135.5,214.5 C 136.833,214.5 138.167,214.5 139.5,214.5C 138.172,223.822 136.839,223.822 135.5,214.5 Z"/></g>
<g><path style="opacity:1" fill="#f9ddb8" d="M 117.5,214.5 C 119.722,215.386 121.888,215.386 124,214.5C 124.702,215.795 125.369,217.128 126,218.5C 126.219,217.062 126.719,215.729 127.5,214.5C 128.833,216.833 128.833,219.167 127.5,221.5C 125.263,219.252 122.596,217.919 119.5,217.5C 117.952,217.179 117.285,216.179 117.5,214.5 Z"/></g>
<g><path style="opacity:1" fill="#f9dbb3" d="M 116.5,219.5 C 116.435,219.938 116.601,220.272 117,220.5C 117.417,219.244 118.25,218.577 119.5,218.5C 123.833,219.174 124.167,220.174 120.5,221.5C 119.808,220.975 119.308,220.308 119,219.5C 118.612,220.428 117.945,221.095 117,221.5C 114.991,221.005 112.824,221.005 110.5,221.5C 110.192,219.076 110.526,216.743 111.5,214.5C 113.215,216.215 114.881,217.881 116.5,219.5 Z"/></g>
<g><path style="opacity:1" fill="#fcf0e0" d="M 153.5,225.5 C 154.477,236.752 154.811,248.086 154.5,259.5C 154.249,267.836 150.915,274.669 144.5,280C 140.494,283.005 136.16,285.505 131.5,287.5C 130.429,282.854 130.429,278.188 131.5,273.5C 131.333,272.167 131.167,270.833 131,269.5C 130.586,269.043 130.086,268.709 129.5,268.5C 127.746,278.054 122.079,281.554 112.5,279C 111.069,278.535 109.903,277.701 109,276.5C 108.318,280.18 109.818,282.68 113.5,284C 118.399,285.125 122.899,284.291 127,281.5C 127.167,282 127.333,282.5 127.5,283C 123.722,286.376 119.389,287.209 114.5,285.5C 114.167,285.833 113.833,286.167 113.5,286.5C 114.833,288.5 116.167,290.5 117.5,292.5C 115.977,294.283 113.977,294.949 111.5,294.5C 105.259,291.379 98.9252,288.213 92.5,285C 77.2244,276.218 71.3911,263.051 75,245.5C 78.9123,240.917 83.4123,237.083 88.5,234C 109.204,224.65 130.87,221.816 153.5,225.5 Z"/></g>
<g><path style="opacity:1" fill="#fefdfc" d="M 112.5,230.5 C 116.661,234.164 118.661,238.83 118.5,244.5C 117.294,252.638 115.794,260.638 114,268.5C 115.911,271.303 118.411,271.97 121.5,270.5C 122.268,266.555 122.768,262.555 123,258.5C 123.667,257.167 124.333,255.833 125,254.5C 125.434,259.174 125.934,263.841 126.5,268.5C 126.475,274.365 123.475,277.365 117.5,277.5C 111.201,276.59 107.868,272.923 107.5,266.5C 108.807,260.019 111.307,254.019 115,248.5C 115.824,245.118 115.657,241.784 114.5,238.5C 110.009,242.482 106.509,247.148 104,252.5C 103.245,249.697 103.578,247.03 105,244.5C 107.333,241.5 109.667,238.5 112,235.5C 112.494,233.866 112.66,232.199 112.5,230.5 Z"/></g>
<g><path style="opacity:1" fill="#fae1c1" d="M 153.5,225.5 C 155.476,235.781 156.143,246.448 155.5,257.5C 155.672,258.492 155.338,259.158 154.5,259.5C 154.811,248.086 154.477,236.752 153.5,225.5 Z"/></g>
<g><path style="opacity:1" fill="#fbe1c0" d="M 170.5,254.5 C 175.735,256.45 181.402,257.117 187.5,256.5C 181.69,257.49 175.69,257.823 169.5,257.5C 169.263,256.209 169.596,255.209 170.5,254.5 Z"/></g>
<g><path style="opacity:1" fill="#fbe3c6" d="M 206.5,253.5 C 205.602,254.158 204.602,254.824 203.5,255.5C 210.468,256.497 217.468,256.83 224.5,256.5C 217.352,257.492 210.019,257.825 202.5,257.5C 202.5,256.167 202.5,254.833 202.5,253.5C 203.833,253.5 205.167,253.5 206.5,253.5 Z"/></g>
<g><path style="opacity:1" fill="#fbe1c0" d="M 277.5,253.5 C 276.282,254.161 274.949,254.828 273.5,255.5C 281.138,256.497 288.804,256.831 296.5,256.5C 288.684,257.492 280.684,257.826 272.5,257.5C 272.5,256.167 272.5,254.833 272.5,253.5C 274.167,253.5 275.833,253.5 277.5,253.5 Z"/></g>
<g><path style="opacity:1" fill="#fae3c4" d="M 305.5,253.5 C 304.282,254.161 302.949,254.828 301.5,255.5C 309.138,256.497 316.804,256.831 324.5,256.5C 316.684,257.492 308.684,257.826 300.5,257.5C 300.5,256.167 300.5,254.833 300.5,253.5C 302.167,253.5 303.833,253.5 305.5,253.5 Z"/></g>
<g><path style="opacity:1" fill="#fbe3c6" d="M 342.5,254.5 C 349.76,256.465 357.427,257.132 365.5,256.5C 357.684,257.492 349.684,257.826 341.5,257.5C 341.263,256.209 341.596,255.209 342.5,254.5 Z"/></g>
<g><path style="opacity:1" fill="#fcecd7" d="M 299.5,268.5 C 292.492,268.334 285.492,268.5 278.5,269C 279.416,269.278 280.082,269.778 280.5,270.5C 279.5,270.5 278.5,270.5 277.5,270.5C 277.5,269.5 277.5,268.5 277.5,267.5C 285.019,267.175 292.352,267.508 299.5,268.5 Z"/></g>
<g><path style="opacity:1" fill="#fcebd5" d="M 322.5,268.5 C 317.489,268.334 312.489,268.501 307.5,269C 308.737,269.232 309.737,269.732 310.5,270.5C 309.167,270.5 307.833,270.5 306.5,270.5C 306.5,269.5 306.5,268.5 306.5,267.5C 312.026,267.179 317.36,267.512 322.5,268.5 Z"/></g>
<g><path style="opacity:1" fill="#fbe8d1" d="M 359.5,268.5 C 363.634,267.515 367.968,267.182 372.5,267.5C 372.5,268.5 372.5,269.5 372.5,270.5C 371.167,270.5 369.833,270.5 368.5,270.5C 369.263,269.732 370.263,269.232 371.5,269C 367.514,268.501 363.514,268.334 359.5,268.5 Z"/></g>
<g><path style="opacity:1" fill="#f7d09c" d="M 200.5,268.5 C 199.306,269.272 198.306,270.272 197.5,271.5C 196.907,279.731 196.074,288.065 195,296.5C 190.454,300.749 185.287,301.582 179.5,299C 177.951,297.786 176.785,296.286 176,294.5C 174.765,286.577 174.098,278.577 174,270.5C 172.933,269.809 171.766,269.309 170.5,269C 174.833,268.333 179.167,268.333 183.5,269C 182.234,269.309 181.067,269.809 180,270.5C 179.333,278.5 179.333,286.5 180,294.5C 182.981,298.696 186.814,299.529 191.5,297C 192.701,296.097 193.535,294.931 194,293.5C 194.667,286.167 194.667,278.833 194,271.5C 192.795,270.929 191.628,270.262 190.5,269.5C 193.768,268.513 197.102,268.18 200.5,268.5 Z"/></g>
<g><path style="opacity:1" fill="#f7cc94" d="M 201.5,268.5 C 204.187,268.336 206.854,268.503 209.5,269C 214.72,276.047 219.72,283.213 224.5,290.5C 224.56,291.043 224.893,291.376 225.5,291.5C 226.817,285.012 226.817,278.678 225.5,272.5C 224.665,271.057 223.332,270.057 221.5,269.5C 225.122,268.341 228.789,268.175 232.5,269C 230.676,269.66 229.343,270.827 228.5,272.5C 227.833,281.5 227.167,290.5 226.5,299.5C 220.846,291.538 215.179,283.538 209.5,275.5C 209.44,274.957 209.107,274.624 208.5,274.5C 207.183,280.988 207.183,287.322 208.5,293.5C 208.325,296.329 209.658,297.996 212.5,298.5C 208.833,299.833 205.167,299.833 201.5,298.5C 203.709,297.937 205.209,296.604 206,294.5C 206.667,286.833 206.667,279.167 206,271.5C 205.617,270.944 205.117,270.611 204.5,270.5C 203.5,269.833 202.5,269.167 201.5,268.5 Z"/></g>
<g><path style="opacity:1" fill="#f7d09b" d="M 243.5,297.5 C 241.167,298.833 238.833,298.833 236.5,297.5C 237.494,288.348 237.827,279.015 237.5,269.5C 239.167,268.167 240.833,268.167 242.5,269.5C 242.173,279.015 242.506,288.348 243.5,297.5 Z"/></g>
<g><path style="opacity:1" fill="#f7ce98" d="M 247.5,269.5 C 251.311,268.355 255.311,268.188 259.5,269C 257.714,269.196 256.381,270.029 255.5,271.5C 258.292,278.375 260.792,285.375 263,292.5C 265.45,285.932 267.616,279.265 269.5,272.5C 269.41,270.575 268.41,269.408 266.5,269C 269.5,268.333 272.5,268.333 275.5,269C 274,269.833 272.833,271 272,272.5C 269.079,281.925 265.746,291.258 262,300.5C 258.244,292.498 255.244,284.165 253,275.5C 252.294,272.393 250.461,270.393 247.5,269.5 Z"/></g>
<g><path style="opacity:1" fill="#f7ce97" d="M 299.5,268.5 C 303.954,276.214 302.954,277.047 296.5,271C 293.341,269.439 290.174,269.272 287,270.5C 286.501,274.486 286.334,278.486 286.5,282.5C 290.715,282.939 293.715,281.273 295.5,277.5C 295.815,281.371 295.482,285.038 294.5,288.5C 294.262,286.596 293.262,285.262 291.5,284.5C 289.735,283.539 287.735,283.205 285.5,283.5C 285.183,287.702 285.517,291.702 286.5,295.5C 286.328,296.492 286.662,297.158 287.5,297.5C 285.5,298.833 283.5,298.833 281.5,297.5C 281.827,288.318 281.493,279.318 280.5,270.5C 280.082,269.778 279.416,269.278 278.5,269C 285.492,268.5 292.492,268.334 299.5,268.5 Z"/></g>
<g><path style="opacity:1" fill="#f7cf9a" d="M 359.5,268.5 C 363.514,268.334 367.514,268.501 371.5,269C 370.263,269.232 369.263,269.732 368.5,270.5C 368.173,279.682 368.507,288.682 369.5,297.5C 367.167,298.833 364.833,298.833 362.5,297.5C 363.657,288.676 363.824,279.676 363,270.5C 361.698,269.915 360.531,269.249 359.5,268.5 Z"/></g>
<g><path style="opacity:1" fill="#f7cd95" d="M 394.5,270.5 C 393.081,269.549 391.415,269.216 389.5,269.5C 389.173,278.682 389.507,287.682 390.5,296.5C 391.398,297.158 392.398,297.824 393.5,298.5C 389.5,299.833 385.5,299.833 381.5,298.5C 382.689,297.571 384.022,297.238 385.5,297.5C 385.5,288.167 385.5,278.833 385.5,269.5C 380.971,269.496 377.471,271.496 375,275.5C 374.313,273.432 374.48,271.432 375.5,269.5C 383.479,268.335 391.479,268.168 399.5,269C 401.05,271.095 401.383,273.262 400.5,275.5C 398.481,273.81 396.481,272.144 394.5,270.5 Z"/></g>
<g><path style="opacity:1" fill="#f7cd96" d="M 402.5,269.5 C 407.219,268.145 409.886,268.145 410.5,269.5C 411.845,274.525 414.012,279.192 417,283.5C 418.97,279.727 420.803,275.894 422.5,272C 422.18,270.347 421.18,269.347 419.5,269C 422.5,268.333 425.5,268.333 428.5,269C 426.448,269.93 424.948,271.43 424,273.5C 422,277.5 420,281.5 418,285.5C 417.333,289.167 417.333,292.833 418,296.5C 419.205,297.071 420.372,297.738 421.5,298.5C 417.5,299.833 413.5,299.833 409.5,298.5C 410.689,297.571 412.022,297.238 413.5,297.5C 413.666,293.486 413.499,289.486 413,285.5C 410.667,280.833 408.333,276.167 406,271.5C 405.184,270.177 404.017,269.511 402.5,269.5 Z"/></g>
<g><path style="opacity:1" fill="#fcedd9" d="M 200.5,268.5 C 200.833,268.5 201.167,268.5 201.5,268.5C 202.5,269.167 203.5,269.833 204.5,270.5C 202.097,270.448 199.764,270.781 197.5,271.5C 198.306,270.272 199.306,269.272 200.5,268.5 Z"/></g>
<g><path style="opacity:1" fill="#fcebd6" d="M 394.5,270.5 C 393.167,270.5 391.833,270.5 390.5,270.5C 390.5,279.167 390.5,287.833 390.5,296.5C 389.507,287.682 389.173,278.682 389.5,269.5C 391.415,269.216 393.081,269.549 394.5,270.5 Z"/></g>
<g><path style="opacity:1" fill="#f7cd96" d="M 157.5,204.5 C 158.662,223.329 158.829,242.329 158,261.5C 156.678,270.989 152.178,278.489 144.5,284C 134.897,289.635 124.897,294.468 114.5,298.5C 112.22,297.864 110.22,296.864 108.5,295.5C 109.609,295.443 110.609,295.11 111.5,294.5C 113.977,294.949 115.977,294.283 117.5,292.5C 116.167,290.5 114.833,288.5 113.5,286.5C 113.833,286.167 114.167,285.833 114.5,285.5C 119.389,287.209 123.722,286.376 127.5,283C 127.333,282.5 127.167,282 127,281.5C 122.899,284.291 118.399,285.125 113.5,284C 109.818,282.68 108.318,280.18 109,276.5C 109.903,277.701 111.069,278.535 112.5,279C 122.079,281.554 127.746,278.054 129.5,268.5C 130.086,268.709 130.586,269.043 131,269.5C 131.167,270.833 131.333,272.167 131.5,273.5C 130.429,278.188 130.429,282.854 131.5,287.5C 136.16,285.505 140.494,283.005 144.5,280C 150.915,274.669 154.249,267.836 154.5,259.5C 155.338,259.158 155.672,258.492 155.5,257.5C 157.022,240.023 157.688,222.356 157.5,204.5 Z"/></g>
<g><path style="opacity:1" fill="#f7ce97" d="M 341.5,267.5 C 345.794,267.577 349.961,268.244 354,269.5C 355.15,271.754 355.484,274.087 355,276.5C 352.24,270.703 347.74,268.537 341.5,270C 338.833,273 338.833,276 341.5,279C 346.097,280.642 350.597,282.476 355,284.5C 357.649,290.045 356.815,294.879 352.5,299C 348.082,299.182 343.749,299.348 339.5,299.5C 333.759,290.407 334.759,289.574 342.5,297C 350.26,300.227 353.76,297.727 353,289.5C 349.673,286.718 345.839,284.885 341.5,284C 334.856,278.375 334.856,272.875 341.5,267.5 Z"/></g>
<g><path style="opacity:1" fill="#fadeb9" d="M 209.5,275.5 C 208.51,281.31 208.177,287.31 208.5,293.5C 207.183,287.322 207.183,280.988 208.5,274.5C 209.107,274.624 209.44,274.957 209.5,275.5 Z"/></g>
<g><path style="opacity:1" fill="#fadeb9" d="M 228.5,272.5 C 228.832,281.857 228.498,291.19 227.5,300.5C 226.893,300.376 226.56,300.043 226.5,299.5C 227.167,290.5 227.833,281.5 228.5,272.5 Z"/></g>
<g><path style="opacity:1" fill="#fcecd7" d="M 225.5,272.5 C 226.817,278.678 226.817,285.012 225.5,291.5C 224.893,291.376 224.56,291.043 224.5,290.5C 225.49,284.69 225.823,278.69 225.5,272.5 Z"/></g>
<g><path style="opacity:1" fill="#f9ddb8" d="M 295.5,277.5 C 296.809,281.351 296.809,285.351 295.5,289.5C 294.893,289.376 294.56,289.043 294.5,288.5C 295.482,285.038 295.815,281.371 295.5,277.5 Z"/></g>
<g><path style="opacity:1" fill="#fbe6cc" d="M 123.5,279.5 C 125.842,279.775 125.842,280.608 123.5,282C 120.833,282.667 118.167,282.667 115.5,282C 118.457,281.721 121.123,280.887 123.5,279.5 Z"/></g>
<g><path style="opacity:1" fill="#f7ce97" d="M 322.5,268.5 C 329.889,269.684 332.389,273.684 330,280.5C 327.681,281.822 325.514,283.322 323.5,285C 325.533,288.898 327.7,292.732 330,296.5C 331.509,297.09 333.009,297.756 334.5,298.5C 331.833,299.833 329.167,299.833 326.5,298.5C 324.079,294.66 321.912,290.66 320,286.5C 318.89,284.963 317.39,284.297 315.5,284.5C 315.5,288.833 315.5,293.167 315.5,297.5C 316.978,297.238 318.311,297.571 319.5,298.5C 315.5,299.833 311.5,299.833 307.5,298.5C 308.628,297.738 309.795,297.071 311,296.5C 311.824,287.657 311.657,278.99 310.5,270.5C 309.737,269.732 308.737,269.232 307.5,269C 312.489,268.501 317.489,268.334 322.5,268.5 Z"/></g>
<g><path style="opacity:1" fill="#fefcf9" d="M 316.5,269.5 C 326.82,269.411 329.154,273.578 323.5,282C 320.854,282.497 318.187,282.664 315.5,282.5C 315.231,278.069 315.564,273.735 316.5,269.5 Z"/></g>
<g><path style="opacity:1" fill="#f9dab1" d="M 291.5,284.5 C 289.833,284.5 288.167,284.5 286.5,284.5C 286.5,288.167 286.5,291.833 286.5,295.5C 285.517,291.702 285.183,287.702 285.5,283.5C 287.735,283.205 289.735,283.539 291.5,284.5 Z"/></g>
<g><path style="opacity:1" fill="#f9d8ae" d="M 120.5,287.5 C 128.272,288.12 128.272,289.787 120.5,292.5C 119.155,291.653 118.155,290.487 117.5,289C 118.449,288.383 119.282,288.549 120,289.5C 120.464,288.906 120.631,288.239 120.5,287.5 Z"/></g>
<g><path style="opacity:1" fill="#f8d2a0" d="M 281.5,297.5 C 283.5,298.833 285.5,298.833 287.5,297.5C 294.123,298.349 299.29,296.016 303,290.5C 302.554,293.438 302.054,296.438 301.5,299.5C 293.472,299.831 285.472,299.498 277.5,298.5C 278.689,297.571 280.022,297.238 281.5,297.5 Z"/></g>
<g><path style="opacity:1" fill="#f8d5a6" d="M 236.5,297.5 C 238.833,298.833 241.167,298.833 243.5,297.5C 244.675,297.281 245.675,297.614 246.5,298.5C 242.167,299.833 237.833,299.833 233.5,298.5C 234.325,297.614 235.325,297.281 236.5,297.5 Z"/></g>
<g><path style="opacity:1" fill="#f9d5a8" d="M 362.5,297.5 C 364.833,298.833 367.167,298.833 369.5,297.5C 370.675,297.281 371.675,297.614 372.5,298.5C 368.167,299.833 363.833,299.833 359.5,298.5C 360.325,297.614 361.325,297.281 362.5,297.5 Z"/></g>
</svg>
