<?xml version="1.0" encoding="UTF-8"?>
<!DOCTYPE svg PUBLIC "-//W3C//DTD SVG 1.1//EN" "http://www.w3.org/Graphics/SVG/1.1/DTD/svg11.dtd">
<svg xmlns="http://www.w3.org/2000/svg" version="1.1" width="477px" height="187px" style="shape-rendering:geometricPrecision; text-rendering:geometricPrecision; image-rendering:optimizeQuality; fill-rule:evenodd; clip-rule:evenodd" xmlns:xlink="http://www.w3.org/1999/xlink">
<g><path style="opacity:1" fill="#fefeff" d="M -0.5,-0.5 C 158.5,-0.5 317.5,-0.5 476.5,-0.5C 476.5,61.8333 476.5,124.167 476.5,186.5C 317.5,186.5 158.5,186.5 -0.5,186.5C -0.5,124.167 -0.5,61.8333 -0.5,-0.5 Z"/></g>
<g><path style="opacity:1" fill="#84d2ff" d="M 123.5,74.5 C 122.833,73.8333 122.167,73.1667 121.5,72.5C 117.17,68.0021 113.003,63.3354 109,58.5C 104.319,63.3485 99.4852,68.0152 94.5,72.5C 89.5094,68.342 85.0094,63.6754 81,58.5C 76.5654,63.6905 71.8987,68.6905 67,73.5C 62.3186,68.6515 57.4852,63.9848 52.5,59.5C 47.7852,63.5481 43.4519,67.8814 39.5,72.5C 38.8333,72.1667 38.1667,71.8333 37.5,71.5C 36.2047,59.4735 36.538,47.4735 38.5,35.5C 45.7779,32.0193 53.4446,29.8526 61.5,29C 78.6718,27.6707 95.6718,28.6707 112.5,32C 116.508,33.1126 120.341,34.6126 124,36.5C 124.775,49.1995 124.608,61.8662 123.5,74.5 Z"/></g>
<g><path style="opacity:1" fill="#86d2fe" d="M 316.5,32.5 C 323.508,32.3337 330.508,32.5004 337.5,33C 347.444,34.2934 350.944,39.7934 348,49.5C 347.282,50.4506 346.449,50.6172 345.5,50C 337.917,36.0312 326.917,32.6979 312.5,40C 299.624,50.3492 295.791,63.5159 301,79.5C 306.644,93.1475 316.811,99.3142 331.5,98C 334.196,97.3102 336.363,95.8102 338,93.5C 338.831,87.1405 338.664,80.8072 337.5,74.5C 334.223,73.7463 330.89,73.2463 327.5,73C 326.483,71.9505 326.316,70.7839 327,69.5C 338.438,68.4765 349.938,67.9765 361.5,68C 362.833,69 362.833,70 361.5,71C 358.133,71.7996 354.966,72.9663 352,74.5C 351.667,81.1667 351.333,87.8333 351,94.5C 349.199,97.1634 346.699,98.9967 343.5,100C 331.907,102.785 320.241,103.119 308.5,101C 289.287,93.0765 281.787,78.9098 286,58.5C 291.174,43.8154 301.341,35.1487 316.5,32.5 Z"/></g>
<g><path style="opacity:1" fill="#86d2fe" d="M 405.5,32.5 C 406.833,32.5 408.167,32.5 409.5,32.5C 409.333,52.5028 409.5,72.5028 410,92.5C 410.273,94.3289 411.107,95.8289 412.5,97C 414.847,97.7119 416.847,98.8786 418.5,100.5C 409.5,101.833 400.5,101.833 391.5,100.5C 393.988,98.9307 396.488,97.264 399,95.5C 399.562,77.8204 399.229,60.1537 398,42.5C 396.365,41.2744 394.865,39.941 393.5,38.5C 397.407,36.3091 401.407,34.3091 405.5,32.5 Z"/></g>
<g><path style="opacity:1" fill="#83d1fe" d="M 436.5,33.5 C 437.5,33.5 438.5,33.5 439.5,33.5C 439.17,49.3422 439.504,65.0089 440.5,80.5C 440.175,85.5988 440.675,90.5988 442,95.5C 444.341,97.5215 446.841,99.1881 449.5,100.5C 440.507,101.357 431.507,102.023 422.5,102.5C 422.281,101.325 422.614,100.325 423.5,99.5C 426.188,98.9951 428.355,97.6618 430,95.5C 430.667,78.5 430.667,61.5 430,44.5C 429.125,41.7854 427.292,40.4521 424.5,40.5C 424.281,39.325 424.614,38.325 425.5,37.5C 429.19,36.1595 432.857,34.8262 436.5,33.5 Z"/></g>
<g><path style="opacity:1" fill="#f5fbff" d="M 74.5,34.5 C 75.1667,34.5 75.8333,34.5 76.5,34.5C 77.8333,34.5 79.1667,34.5 80.5,34.5C 80.5,40.5 80.5,46.5 80.5,52.5C 79.8333,52.8333 79.1667,53.1667 78.5,53.5C 76.1667,53.5 73.8333,53.5 71.5,53.5C 71.1826,50.4281 71.5159,47.4281 72.5,44.5C 74.8537,43.9399 77.187,43.2733 79.5,42.5C 77.0743,41.8316 74.741,41.4982 72.5,41.5C 71.5344,39.604 71.2011,37.604 71.5,35.5C 72.791,35.7373 73.791,35.404 74.5,34.5 Z"/></g>
<g><path style="opacity:1" fill="#8ad4ff" d="M 373.5,33.5 C 379.83,32.6662 382.663,35.3329 382,41.5C 376.943,46.075 373.109,45.2417 370.5,39C 371.124,36.9149 372.124,35.0816 373.5,33.5 Z"/></g>
<g><path style="opacity:1" fill="#86d2fe" d="M 218.5,35.5 C 226.86,35.1688 235.193,35.5021 243.5,36.5C 243.023,37.4776 242.357,38.3109 241.5,39C 232.559,39.1137 228.892,43.6137 230.5,52.5C 231.146,66.1608 231.646,79.8275 232,93.5C 234.594,97.0473 238.094,98.8807 242.5,99C 243.451,99.7175 243.617,100.551 243,101.5C 231.667,101.5 220.333,101.5 209,101.5C 208.312,100.668 208.479,100.002 209.5,99.5C 212.743,98.9852 215.576,97.6519 218,95.5C 218.76,80.4582 218.26,65.4582 216.5,50.5C 209.671,67.0115 202.671,83.3448 195.5,99.5C 194.522,99.0233 193.689,98.3567 193,97.5C 185.924,81.6821 178.59,66.0155 171,50.5C 170.333,65.1667 170.333,79.8333 171,94.5C 173.809,97.5669 177.309,99.2335 181.5,99.5C 182.386,100.325 182.719,101.325 182.5,102.5C 172.463,101.573 162.463,101.24 152.5,101.5C 154.697,99.4816 157.364,98.315 160.5,98C 162.768,96.4423 163.934,94.2756 164,91.5C 164.973,75.1726 165.307,58.8393 165,42.5C 162.066,40.8073 158.899,39.8073 155.5,39.5C 155.5,38.5 155.5,37.5 155.5,36.5C 163.174,36.3336 170.841,36.5003 178.5,37C 185.356,51.2128 192.356,65.3794 199.5,79.5C 204.989,65.8519 210.489,52.1852 216,38.5C 217.045,37.6266 217.878,36.6266 218.5,35.5 Z"/></g>
<g><path style="opacity:1" fill="#dff3ff" d="M 81.5,33.5 C 82.791,33.2627 83.791,33.596 84.5,34.5C 82.6214,34.3932 82.2881,34.8932 83.5,36C 91.4336,37.9397 91.2669,39.4397 83,40.5C 82.5045,42.4727 82.3379,44.4727 82.5,46.5C 84.5,46.5 86.5,46.5 88.5,46.5C 88.5,47.5 88.5,48.5 88.5,49.5C 86.14,48.0838 84.14,48.4172 82.5,50.5C 83.376,51.2508 84.376,51.7508 85.5,52C 84.2625,52.2321 83.2625,52.7321 82.5,53.5C 81.0755,55.0311 80.4088,54.6977 80.5,52.5C 81.1897,47.767 81.8563,42.9336 82.5,38C 81.6198,36.6439 81.2865,35.1439 81.5,33.5 Z"/></g>
<g><path style="opacity:1" fill="#f4faff" d="M 84.5,34.5 C 85.1667,34.5 85.8333,34.5 86.5,34.5C 87.5676,35.4345 88.901,35.7678 90.5,35.5C 90.4111,41.5443 90.4111,47.3776 90.5,53C 87.854,53.4974 85.1873,53.6641 82.5,53.5C 83.2625,52.7321 84.2625,52.2321 85.5,52C 84.376,51.7508 83.376,51.2508 82.5,50.5C 84.14,48.4172 86.14,48.0838 88.5,49.5C 88.5,48.5 88.5,47.5 88.5,46.5C 86.5,46.5 84.5,46.5 82.5,46.5C 82.3379,44.4727 82.5045,42.4727 83,40.5C 91.2669,39.4397 91.4336,37.9397 83.5,36C 82.2881,34.8932 82.6214,34.3932 84.5,34.5 Z"/></g>
<g><path style="opacity:1" fill="#d9f1ff" d="M 86.5,34.5 C 88.4672,34.2606 90.3005,34.5939 92,35.5C 92.6667,41.5 92.6667,47.5 92,53.5C 88.7312,54.8184 85.5645,54.8184 82.5,53.5C 85.1873,53.6641 87.854,53.4974 90.5,53C 90.4111,47.3776 90.4111,41.5443 90.5,35.5C 88.901,35.7678 87.5676,35.4345 86.5,34.5 Z"/></g>
<g><path style="opacity:1" fill="#f1f9ff" d="M 111.5,46.5 C 110.272,45.6935 109.272,44.6935 108.5,43.5C 108.971,42.0992 109.638,40.7658 110.5,39.5C 111.474,41.7427 111.808,44.076 111.5,46.5 Z"/></g>
<g><path style="opacity:1" fill="#caebff" d="M 74.5,34.5 C 73.791,35.404 72.791,35.7373 71.5,35.5C 71.2011,37.604 71.5344,39.604 72.5,41.5C 74.741,41.4982 77.0743,41.8316 79.5,42.5C 77.187,43.2733 74.8537,43.9399 72.5,44.5C 71.5159,47.4281 71.1826,50.4281 71.5,53.5C 73.8333,53.5 76.1667,53.5 78.5,53.5C 75.4355,54.8184 72.2688,54.8184 69,53.5C 68.3333,47.5 68.3333,41.5 69,35.5C 70.6995,34.5939 72.5328,34.2606 74.5,34.5 Z"/></g>
<g><path style="opacity:1" fill="#b1e2ff" d="M 76.5,34.5 C 77.9187,33.5489 79.5853,33.2155 81.5,33.5C 81.2865,35.1439 81.6198,36.6439 82.5,38C 81.8563,42.9336 81.1897,47.767 80.5,52.5C 80.5,46.5 80.5,40.5 80.5,34.5C 79.1667,34.5 77.8333,34.5 76.5,34.5 Z"/></g>
<g><path style="opacity:1" fill="#dcf2ff" d="M 105.5,47.5 C 108.463,49.7866 111.463,52.12 114.5,54.5C 111.102,54.8204 107.768,54.487 104.5,53.5C 103.387,50.5567 102.054,47.7233 100.5,45C 102.991,41.6119 103.657,41.7786 102.5,45.5C 103.005,46.9185 104.005,47.5852 105.5,47.5 Z"/></g>
<g><path style="opacity:1" fill="#d3eeff" d="M 50.5,39.5 C 51.5,39.5 52.5,39.5 53.5,39.5C 53.5,41.8333 53.5,44.1667 53.5,46.5C 55.5,46.8333 57.5,47.1667 59.5,47.5C 59.5,46.1667 59.5,44.8333 59.5,43.5C 60.552,43.3505 61.552,43.5172 62.5,44C 60.3484,47.1343 58.6817,50.4677 57.5,54C 53.7887,54.8253 50.122,54.6586 46.5,53.5C 45.3873,50.5567 44.054,47.7233 42.5,45C 43.0085,43.8315 43.8419,42.9981 45,42.5C 44.621,44.075 44.7877,45.575 45.5,47C 47.0438,46.5134 48.7105,46.0134 50.5,45.5C 50.5,43.5 50.5,41.5 50.5,39.5 Z"/></g>
<g><path style="opacity:1" fill="#d1eeff" d="M 72.5,46.5 C 74.924,46.1924 77.2573,46.5258 79.5,47.5C 79.2907,48.086 78.9574,48.586 78.5,49C 76.5273,49.4955 74.5273,49.6621 72.5,49.5C 72.5,48.5 72.5,47.5 72.5,46.5 Z"/></g>
<g><path style="opacity:1" fill="#c5e9ff" d="M 108.5,43.5 C 109.272,44.6935 110.272,45.6935 111.5,46.5C 111.369,47.2389 111.536,47.9056 112,48.5C 112.893,47.2888 113.726,47.2888 114.5,48.5C 113.271,49.2811 111.938,49.7811 110.5,50C 112.061,50.3176 113.228,51.1509 114,52.5C 114.671,51.7476 115.504,51.4142 116.5,51.5C 116.573,53.0269 115.906,54.0269 114.5,54.5C 111.463,52.12 108.463,49.7866 105.5,47.5C 106.209,46.596 107.209,46.2627 108.5,46.5C 108.5,45.5 108.5,44.5 108.5,43.5 Z"/></g>
<g><path style="opacity:1" fill="#ddf2ff" d="M 116.5,51.5 C 115.504,51.4142 114.671,51.7476 114,52.5C 113.228,51.1509 112.061,50.3176 110.5,50C 111.938,49.7811 113.271,49.2811 114.5,48.5C 113.726,47.2888 112.893,47.2888 112,48.5C 111.536,47.9056 111.369,47.2389 111.5,46.5C 113.262,46.3573 114.929,46.6906 116.5,47.5C 117.429,46.3112 117.762,44.9778 117.5,43.5C 118.552,43.3505 119.552,43.5172 120.5,44C 119.019,46.9707 117.686,49.4707 116.5,51.5 Z"/></g>
<g><path style="opacity:1" fill="#9bdaff" d="M 436.5,33.5 C 437.568,32.5655 438.901,32.2322 440.5,32.5C 440.5,48.5 440.5,64.5 440.5,80.5C 439.504,65.0089 439.17,49.3422 439.5,33.5C 438.5,33.5 437.5,33.5 436.5,33.5 Z"/></g>
<g><path style="opacity:1" fill="#87d2fe" d="M 259.5,55.5 C 264.599,55.1746 269.599,55.6746 274.5,57C 279.543,58.8686 280.543,61.8686 277.5,66C 275.833,66.6667 274.167,66.6667 272.5,66C 267.616,58.4451 261.782,57.6118 255,63.5C 250.338,72.1296 250.338,80.7963 255,89.5C 259.017,94.5927 264.184,96.4261 270.5,95C 273.096,93.8644 275.763,93.031 278.5,92.5C 278.703,94.3904 278.037,95.8904 276.5,97C 262.587,105.06 251.087,102.56 242,89.5C 237.461,72.9133 243.294,61.5799 259.5,55.5 Z"/></g>
<g><path style="opacity:1" fill="#85d2fe" d="M 378.5,57.5 C 379.5,57.5 380.5,57.5 381.5,57.5C 381.333,69.8378 381.5,82.1712 382,94.5C 383.097,97.2648 385.097,98.9314 388,99.5C 388.483,100.448 388.649,101.448 388.5,102.5C 380.167,101.167 371.833,101.167 363.5,102.5C 363.281,101.325 363.614,100.325 364.5,99.5C 367.188,98.9951 369.355,97.6618 371,95.5C 371.667,87.1667 371.667,78.8333 371,70.5C 369.545,68.4068 367.712,66.7401 365.5,65.5C 369.996,63.086 374.329,60.4194 378.5,57.5 Z"/></g>
<g><path style="opacity:1" fill="#fcfdff" d="M 121.5,72.5 C 121.656,76.5817 121.156,80.5817 120,84.5C 117.771,91.2875 115.271,97.9542 112.5,104.5C 105.001,116.672 95.6678,127.339 84.5,136.5C 83.4168,136.539 82.4168,136.873 81.5,137.5C 79.2746,135.89 76.9413,134.557 74.5,133.5C 55.359,117.562 43.6923,97.2291 39.5,72.5C 43.4519,67.8814 47.7852,63.5481 52.5,59.5C 57.4852,63.9848 62.3186,68.6515 67,73.5C 71.8987,68.6905 76.5654,63.6905 81,58.5C 85.0094,63.6754 89.5094,68.342 94.5,72.5C 99.4852,68.0152 104.319,63.3485 109,58.5C 113.003,63.3354 117.17,68.0021 121.5,72.5 Z"/></g>
<g><path style="opacity:1" fill="#89d3ff" d="M 70.5,95.5 C 67.9759,94.1997 65.3092,94.1997 62.5,95.5C 62.6236,96.1067 62.9569,96.44 63.5,96.5C 64.0431,96.56 64.3764,96.8933 64.5,97.5C 61.8333,98.8333 59.1667,98.8333 56.5,97.5C 55.6395,94.1436 53.8061,91.477 51,89.5C 50.2114,85.9085 50.3781,82.4085 51.5,79C 56.8293,77.1781 59.496,79.0115 59.5,84.5C 62.5279,84.6611 65.3612,83.9944 68,82.5C 69.3188,83.3185 70.4855,84.3185 71.5,85.5C 70.5,86.8333 69.5,88.1667 68.5,89.5C 68.7093,90.086 69.0426,90.586 69.5,91C 72.2004,91.2532 74.867,91.2532 77.5,91C 74.9557,92.7748 74.9557,94.6082 77.5,96.5C 77.1667,96.8333 76.8333,97.1667 76.5,97.5C 74.677,96.2528 72.677,95.5861 70.5,95.5 Z"/></g>
<g><path style="opacity:1" fill="#87d3ff" d="M 102.5,91.5 C 104.5,92.1667 106.5,92.8333 108.5,93.5C 108.062,93.4346 107.728,93.6012 107.5,94C 109.329,95.1133 110.163,96.6133 110,98.5C 105.816,95.6646 101.316,94.9979 96.5,96.5C 97.5498,97.4288 97.5498,98.0954 96.5,98.5C 93.7212,98.7214 91.0545,98.388 88.5,97.5C 88.379,94.7626 86.879,92.4293 84,90.5C 83.3333,87.1667 83.3333,83.8333 84,80.5C 85.4659,78.6751 87.2992,78.1751 89.5,79C 90.9437,80.7635 91.9437,82.7635 92.5,85C 96.1653,85.6772 99.4986,84.8439 102.5,82.5C 103.711,83.2739 103.711,84.1072 102.5,85C 103.167,85.3333 103.833,85.6667 104.5,86C 103.506,87.3287 102.506,88.662 101.5,90C 101.57,90.7648 101.903,91.2648 102.5,91.5 Z"/></g>
<g><path style="opacity:1" fill="#a8dfff" d="M 121.5,72.5 C 122.167,73.1667 122.833,73.8333 123.5,74.5C 122.171,83.1646 119.671,91.4979 116,99.5C 115.303,101.584 114.136,103.251 112.5,104.5C 115.271,97.9542 117.771,91.2875 120,84.5C 121.156,80.5817 121.656,76.5817 121.5,72.5 Z"/></g>
<g><path style="opacity:1" fill="#b5e4ff" d="M 102.5,91.5 C 105.187,91.3359 107.854,91.5026 110.5,92C 109.956,92.7172 109.289,93.2172 108.5,93.5C 106.5,92.8333 104.5,92.1667 102.5,91.5 Z"/></g>
<g><path style="opacity:1" fill="#c8eaff" d="M 70.5,95.5 C 67.9407,95.1984 65.6074,95.5318 63.5,96.5C 62.9569,96.44 62.6236,96.1067 62.5,95.5C 65.3092,94.1997 67.9759,94.1997 70.5,95.5 Z"/></g>
<g><path style="opacity:1" fill="#a9dfff" d="M 37.5,71.5 C 38.1667,71.8333 38.8333,72.1667 39.5,72.5C 43.6923,97.2291 55.359,117.562 74.5,133.5C 65.186,127.685 57.686,120.019 52,110.5C 44.8937,98.3482 40.0604,85.3482 37.5,71.5 Z"/></g>
<g><path style="opacity:1" fill="#c0e7ff" d="M 88.5,97.5 C 91.0545,98.388 93.7212,98.7214 96.5,98.5C 95.3784,99.1558 94.0451,99.4892 92.5,99.5C 90.6672,99.4146 89.3339,98.7479 88.5,97.5 Z"/></g>
<g><path style="opacity:1" fill="#87d3ff" d="M 69.5,102.5 C 74.3394,101.677 76.6728,103.677 76.5,108.5C 80.2421,108.073 83.9088,107.573 87.5,107C 87.7827,109.621 87.2827,112.121 86,114.5C 88.405,115.274 90.905,115.774 93.5,116C 92.3966,117.68 92.7299,119.18 94.5,120.5C 94.1667,120.833 93.8333,121.167 93.5,121.5C 87.1059,118.563 81.7725,118.897 77.5,122.5C 76.1667,122.167 74.8333,121.833 73.5,121.5C 71.8924,117.901 69.8924,114.568 67.5,111.5C 68.6808,109.137 68.6808,106.803 67.5,104.5C 68.2427,103.818 68.9094,103.151 69.5,102.5 Z"/></g>
<g><path style="opacity:1" fill="#afe1ff" d="M 288.5,118.5 C 287.791,117.596 286.791,117.263 285.5,117.5C 288.413,116.472 292.746,116.139 298.5,116.5C 298.762,117.978 298.429,119.311 297.5,120.5C 294.788,118.74 291.788,118.073 288.5,118.5 Z"/></g>
<g><path style="opacity:1" fill="#b3e3ff" d="M 379.5,117.5 C 378.209,117.263 377.209,117.596 376.5,118.5C 375.711,118.217 375.044,117.717 374.5,117C 377.901,116.096 379.568,116.263 379.5,117.5 Z"/></g>
<g><path style="opacity:1" fill="#a7deff" d="M 406.5,118.5 C 405.5,117.167 404.5,117.167 403.5,118.5C 400.606,118.042 398.106,118.709 396,120.5C 395.51,119.207 395.343,117.873 395.5,116.5C 402.167,116.5 408.833,116.5 415.5,116.5C 415.762,117.978 415.429,119.311 414.5,120.5C 412.132,118.777 409.466,118.11 406.5,118.5 Z"/></g>
<g><path style="opacity:1" fill="#ace0ff" d="M 435.5,137.5 C 437.842,133.884 438.175,129.884 436.5,125.5C 439.026,124.124 440.692,121.958 441.5,119C 441.095,118.055 440.428,117.388 439.5,117C 441.5,116.333 443.5,116.333 445.5,117C 441.513,121.303 439.18,126.303 438.5,132C 438.6,134.302 439.267,136.302 440.5,138C 437.099,138.904 435.432,138.737 435.5,137.5 Z"/></g>
<g><path style="opacity:1" fill="#98d8ff" d="M 228.5,117.5 C 230.628,116.371 232.961,116.204 235.5,117C 234.214,120.233 233.547,123.733 233.5,127.5C 233.547,131.267 234.214,134.767 235.5,138C 233.167,138.667 230.833,138.667 228.5,138C 229.786,134.767 230.453,131.267 230.5,127.5C 230.486,123.761 229.82,120.428 228.5,117.5 Z"/></g>
<g><path style="opacity:1" fill="#8dd4ff" d="M 285.5,117.5 C 286.791,117.263 287.791,117.596 288.5,118.5C 288.5,121.167 288.5,123.833 288.5,126.5C 291.394,126.958 293.894,126.291 296,124.5C 296.667,126.5 296.667,128.5 296,130.5C 293.894,128.709 291.394,128.042 288.5,128.5C 287.456,138.076 290.956,140.076 299,134.5C 299.507,135.996 299.007,137.163 297.5,138C 293.167,138.667 288.833,138.667 284.5,138C 285,137.5 285.5,137 286,136.5C 286.79,130.085 286.624,123.752 285.5,117.5 Z"/></g>
<g><path style="opacity:1" fill="#95d8ff" d="M 323.5,126.5 C 325.531,130.711 328.197,134.545 331.5,138C 330.167,138.667 328.833,138.667 327.5,138C 325.5,135 323.5,132 321.5,129C 320.207,128.51 318.873,128.343 317.5,128.5C 316.989,132.03 317.656,135.196 319.5,138C 317.167,138.667 314.833,138.667 312.5,138C 313.783,134.936 314.45,131.603 314.5,128C 314.333,124.833 314.167,121.667 314,118.5C 313.5,118 313,117.5 312.5,117C 316.5,116.333 320.5,116.333 324.5,117C 328.753,120.859 328.42,124.026 323.5,126.5 Z"/></g>
<g><path style="opacity:1" fill="#95d8ff" d="M 406.5,118.5 C 405.899,125.289 406.566,131.789 408.5,138C 406.167,138.667 403.833,138.667 401.5,138C 403.434,131.789 404.101,125.289 403.5,118.5C 404.5,117.167 405.5,117.167 406.5,118.5 Z"/></g>
<g><path style="opacity:1" fill="#8fd5ff" d="M 436.5,125.5 C 438.175,129.884 437.842,133.884 435.5,137.5C 436.573,129.154 433.906,122.321 427.5,117C 429.5,116.333 431.5,116.333 433.5,117C 433.043,117.414 432.709,117.914 432.5,118.5C 434.098,120.698 435.431,123.031 436.5,125.5 Z"/></g>
<g><path style="opacity:1" fill="#92d7fe" d="M 156.5,117.5 C 158.288,116.378 160.288,116.211 162.5,117C 162,117.5 161.5,118 161,118.5C 160.333,123.167 160.333,127.833 161,132.5C 163.072,137.143 166.572,138.643 171.5,137C 173.049,135.786 174.215,134.286 175,132.5C 175.667,127.833 175.667,123.167 175,118.5C 174.25,117.874 173.416,117.374 172.5,117C 174.5,116.333 176.5,116.333 178.5,117C 178,117.5 177.5,118 177,118.5C 176.667,123.833 176.333,129.167 176,134.5C 175.626,135.416 175.126,136.25 174.5,137C 168.637,139.67 163.47,138.837 159,134.5C 158.667,129.167 158.333,123.833 158,118.5C 157.617,117.944 157.117,117.611 156.5,117.5 Z"/></g>
<g><path style="opacity:1" fill="#fafdff" d="M 323.5,126.5 C 321.5,126.5 319.5,126.5 317.5,126.5C 317.5,123.5 317.5,120.5 317.5,117.5C 324.2,117.357 326.2,120.357 323.5,126.5 Z"/></g>
<g><path style="opacity:1" fill="#94d7ff" d="M 379.5,117.5 C 378.895,124.618 379.562,131.452 381.5,138C 379.167,138.667 376.833,138.667 374.5,138C 376.434,131.789 377.101,125.289 376.5,118.5C 377.209,117.596 378.209,117.263 379.5,117.5 Z"/></g>
<g><path style="opacity:1" fill="#b1e2ff" d="M 112.5,104.5 C 106.412,117.927 97.0786,128.593 84.5,136.5C 95.6678,127.339 105.001,116.672 112.5,104.5 Z"/></g>
<g><path style="opacity:1" fill="#9ad9ff" d="M 348.5,116.5 C 352.106,116.211 355.606,116.544 359,117.5C 359.667,119.167 359.667,120.833 359,122.5C 357.287,117.962 354.12,116.462 349.5,118C 346.679,120.717 347.013,123.05 350.5,125C 353.822,125.059 356.656,126.226 359,128.5C 361.385,132.457 360.552,135.624 356.5,138C 352.909,138.789 349.409,138.622 346,137.5C 345.132,132.617 345.965,132.283 348.5,136.5C 353.07,138.583 356.403,137.416 358.5,133C 358.241,131.739 357.574,130.739 356.5,130C 352.398,129.271 348.898,127.438 346,124.5C 345.018,121.225 345.851,118.559 348.5,116.5 Z"/></g>
<g><path style="opacity:1" fill="#95d8ff" d="M 197.5,123.5 C 197.44,122.957 197.107,122.624 196.5,122.5C 195.188,127.318 195.188,131.985 196.5,136.5C 196.918,137.222 197.584,137.722 198.5,138C 196.5,138.667 194.5,138.667 192.5,138C 193,137.5 193.5,137 194,136.5C 194.83,130.472 194.664,124.472 193.5,118.5C 192.692,118.192 192.025,117.692 191.5,117C 192.944,116.219 194.277,116.386 195.5,117.5C 200.1,123.022 204.933,128.356 210,133.5C 210.829,128.467 210.662,123.467 209.5,118.5C 208.692,118.192 208.025,117.692 207.5,117C 209.5,116.333 211.5,116.333 213.5,117C 213,117.5 212.5,118 212,118.5C 211.667,125.167 211.333,131.833 211,138.5C 206.493,133.468 201.993,128.468 197.5,123.5 Z"/></g>
<g><path style="opacity:1" fill="#bfe7ff" d="M 197.5,123.5 C 196.515,127.634 196.182,131.968 196.5,136.5C 195.188,131.985 195.188,127.318 196.5,122.5C 197.107,122.624 197.44,122.957 197.5,123.5 Z"/></g>
<g><path style="opacity:1" fill="#97d8ff" d="M 249.5,117.5 C 251.288,116.378 253.288,116.211 255.5,117C 254.446,118.388 254.28,119.888 255,121.5C 256.806,125.918 258.806,130.251 261,134.5C 263.167,129.333 265.333,124.167 267.5,119C 267.095,118.055 266.428,117.388 265.5,117C 267.167,116.333 268.833,116.333 270.5,117C 267.267,124.192 263.934,131.358 260.5,138.5C 257.129,132.423 254.296,126.09 252,119.5C 251.292,118.619 250.458,117.953 249.5,117.5 Z"/></g>
<g><path style="opacity:1" fill="#afe1ff" d="M 74.5,133.5 C 76.9413,134.557 79.2746,135.89 81.5,137.5C 82.4168,136.873 83.4168,136.539 84.5,136.5C 83.3409,138.377 81.6742,138.877 79.5,138C 77.3825,136.951 75.7158,135.451 74.5,133.5 Z"/></g>
</svg>
