<?xml version="1.0" encoding="UTF-8"?>
<!DOCTYPE svg PUBLIC "-//W3C//DTD SVG 1.1//EN" "http://www.w3.org/Graphics/SVG/1.1/DTD/svg11.dtd">
<svg xmlns="http://www.w3.org/2000/svg" version="1.1" width="500px" height="500px" style="shape-rendering:geometricPrecision; text-rendering:geometricPrecision; image-rendering:optimizeQuality; fill-rule:evenodd; clip-rule:evenodd" xmlns:xlink="http://www.w3.org/1999/xlink">
<g><path style="opacity:1" fill="#fefefe" d="M -0.5,-0.5 C 166.167,-0.5 332.833,-0.5 499.5,-0.5C 499.5,166.167 499.5,332.833 499.5,499.5C 332.833,499.5 166.167,499.5 -0.5,499.5C -0.5,332.833 -0.5,166.167 -0.5,-0.5 Z"/></g>
<g><path style="opacity:1" fill="#cddefd" d="M 306.5,222.5 C 312.31,221.51 318.31,221.177 324.5,221.5C 324.785,223.288 324.452,224.955 323.5,226.5C 322.702,226.043 322.369,225.376 322.5,224.5C 323.043,224.44 323.376,224.107 323.5,223.5C 317.872,222.505 312.206,222.171 306.5,222.5 Z"/></g>
<g><path style="opacity:1" fill="#c2d8fd" d="M 342.5,223.5 C 341.791,222.596 340.791,222.263 339.5,222.5C 339.737,223.791 339.404,224.791 338.5,225.5C 338.461,224.417 338.127,223.417 337.5,222.5C 339.833,221.167 342.167,221.167 344.5,222.5C 344.043,223.298 343.376,223.631 342.5,223.5 Z"/></g>
<g><path style="opacity:1" fill="#88b1fc" d="M 247.5,221.5 C 251.846,221.334 256.179,221.501 260.5,222C 261.554,223.388 261.72,224.888 261,226.5C 260.626,225.584 260.126,224.75 259.5,224C 257.527,223.505 255.527,223.338 253.5,223.5C 253.5,225.833 253.5,228.167 253.5,230.5C 255.766,230.859 257.599,230.192 259,228.5C 259.667,230.5 259.667,232.5 259,234.5C 257.599,232.808 255.766,232.141 253.5,232.5C 253.5,234.833 253.5,237.167 253.5,239.5C 255.857,239.663 258.19,239.497 260.5,239C 261.126,238.25 261.626,237.416 262,236.5C 262.595,237.899 262.428,239.232 261.5,240.5C 256.869,241.662 252.202,241.828 247.5,241C 248.776,238.276 249.442,235.276 249.5,232C 249.328,228.318 248.661,224.818 247.5,221.5 Z"/></g>
<g><path style="opacity:1" fill="#71a3fb" d="M 182.5,239.5 C 181.791,240.404 180.791,240.737 179.5,240.5C 178.542,240.047 177.708,239.381 177,238.5C 176.303,233.102 175.137,227.935 173.5,223C 175.833,222.333 178.167,222.333 180.5,223C 179.257,224.87 178.59,227.036 178.5,229.5C 177.773,233.777 179.107,237.111 182.5,239.5 Z"/></g>
<g><path style="opacity:1" fill="#7daafc" d="M 195.5,223.5 C 197.288,222.378 199.288,222.211 201.5,223C 204.211,226.922 207.045,230.756 210,234.5C 210.167,232.667 210.333,230.833 210.5,229C 210.4,226.698 209.733,224.698 208.5,223C 210.5,222.333 212.5,222.333 214.5,223C 212.891,228.911 211.891,235.078 211.5,241.5C 207.475,236.642 203.642,231.642 200,226.5C 199.833,228.833 199.667,231.167 199.5,233.5C 199.574,236.287 200.24,238.787 201.5,241C 196.627,241.751 195.294,241.584 197.5,240.5C 198.117,234.402 197.45,228.735 195.5,223.5 Z"/></g>
<g><path style="opacity:1" fill="#7eaafc" d="M 226.5,223.5 C 228.628,222.371 230.961,222.204 233.5,223C 232.446,224.388 232.28,225.888 233,227.5C 234.528,230.417 235.861,233.417 237,236.5C 238.639,232.722 240.139,228.889 241.5,225C 241.095,224.055 240.428,223.388 239.5,223C 241.833,222.333 244.167,222.333 246.5,223C 245.584,223.374 244.75,223.874 244,224.5C 241.59,230.318 238.923,235.985 236,241.5C 232.751,236.186 230.251,230.52 228.5,224.5C 228.043,223.702 227.376,223.369 226.5,223.5 Z"/></g>
<g><path style="opacity:1" fill="#72a4fb" d="M 297.5,223.5 C 299.628,222.371 301.961,222.204 304.5,223C 303.229,225.554 302.562,228.387 302.5,231.5C 302.667,234.167 302.833,236.833 303,239.5C 303.5,240 304,240.5 304.5,241C 302.167,241.667 299.833,241.667 297.5,241C 298.776,238.276 299.442,235.276 299.5,232C 299.481,228.748 298.814,225.915 297.5,223.5 Z"/></g>
<g><path style="opacity:1" fill="#7eabfc" d="M 338.5,225.5 C 339.404,224.791 339.737,223.791 339.5,222.5C 340.791,222.263 341.791,222.596 342.5,223.5C 336.503,228.362 335.17,234.195 338.5,241C 335.833,241.667 333.167,241.667 330.5,241C 333.93,234.095 332.596,228.095 326.5,223C 328.833,222.333 331.167,222.333 333.5,223C 332.755,225.405 333.422,227.572 335.5,229.5C 336.984,228.533 337.984,227.2 338.5,225.5 Z"/></g>
<g><path style="opacity:1" fill="#75a5fb" d="M 306.5,222.5 C 312.206,222.171 317.872,222.505 323.5,223.5C 323.376,224.107 323.043,224.44 322.5,224.5C 320.735,223.539 318.735,223.205 316.5,223.5C 316.334,228.844 316.501,234.177 317,239.5C 317.5,240 318,240.5 318.5,241C 316.167,241.667 313.833,241.667 311.5,241C 313.425,235.464 314.092,229.631 313.5,223.5C 310.453,222.855 308.287,223.855 307,226.5C 306.51,225.207 306.343,223.873 306.5,222.5 Z"/></g>
<g><path style="opacity:1" fill="#76a6fb" d="M 355.5,222.5 C 365.491,221.325 369.991,225.659 369,235.5C 366.549,241.089 362.383,242.922 356.5,241C 351.777,237.746 350.277,233.246 352,227.5C 352.997,225.677 354.164,224.01 355.5,222.5 Z"/></g>
<g><path style="opacity:1" fill="#f8fafe" d="M 357.5,223.5 C 360.652,222.959 363.152,223.959 365,226.5C 365.667,230.167 365.667,233.833 365,237.5C 362.633,240.932 359.966,241.265 357,238.5C 353.536,233.344 353.702,228.344 357.5,223.5 Z"/></g>
<g><path style="opacity:1" fill="#94b9fc" d="M 217.5,223.5 C 219.628,222.371 221.961,222.204 224.5,223C 223.224,225.724 222.558,228.724 222.5,232C 222.558,235.276 223.224,238.276 224.5,241C 222.167,241.667 219.833,241.667 217.5,241C 218.825,235.068 218.825,229.234 217.5,223.5 Z"/></g>
<g><path style="opacity:1" fill="#689efb" d="M 219.5,223.5 C 220.814,225.915 221.481,228.748 221.5,232C 221.167,234.833 220.833,237.667 220.5,240.5C 219.505,234.872 219.171,229.206 219.5,223.5 Z"/></g>
<g><path style="opacity:1" fill="#8bb4fc" d="M 179.5,240.5 C 180.791,240.737 181.791,240.404 182.5,239.5C 184.722,239.822 186.556,239.155 188,237.5C 188.167,235.167 188.333,232.833 188.5,230.5C 188.426,227.713 187.76,225.213 186.5,223C 188.5,222.333 190.5,222.333 192.5,223C 190.753,227.531 189.92,232.365 190,237.5C 187.239,241.386 183.739,242.386 179.5,240.5 Z"/></g>
<g><path style="opacity:1" fill="#7ba9fb" d="M 286.5,222.5 C 289.5,222.5 292.5,222.5 295.5,222.5C 295.683,228.316 294.35,228.816 291.5,224C 287.912,223.389 286.746,224.889 288,228.5C 290.333,230.167 292.667,231.833 295,233.5C 296.732,239.272 294.565,241.939 288.5,241.5C 284.08,242.091 282.747,240.424 284.5,236.5C 285.875,239.729 288.208,240.896 291.5,240C 292.554,238.612 292.72,237.112 292,235.5C 289.347,233.845 287.014,231.845 285,229.5C 284.167,226.829 284.667,224.496 286.5,222.5 Z"/></g>
<g><path style="opacity:1" fill="#76a6fb" d="M 264.5,223.5 C 267.976,222.357 271.642,222.19 275.5,223C 279.598,226.649 279.265,229.982 274.5,233C 276.5,236.333 279.167,239 282.5,241C 280.833,241.667 279.167,241.667 277.5,241C 274.955,238.624 272.622,236.124 270.5,233.5C 269.029,236.321 269.363,238.821 271.5,241C 269.167,241.667 266.833,241.667 264.5,241C 265,240.5 265.5,240 266,239.5C 266.167,236.833 266.333,234.167 266.5,231.5C 266.478,228.41 265.812,225.743 264.5,223.5 Z"/></g>
<g><path style="opacity:1" fill="#f5f8fe" d="M 269.5,223.5 C 272.93,222.755 274.597,224.089 274.5,227.5C 274.597,230.911 272.93,232.245 269.5,231.5C 269.5,228.833 269.5,226.167 269.5,223.5 Z"/></g>
<g><path style="opacity:1" fill="#81acfc" d="M 371.5,223.5 C 375.634,222.515 379.968,222.182 384.5,222.5C 384.79,226.554 384.123,227.054 382.5,224C 380.527,223.505 378.527,223.338 376.5,223.5C 376.5,225.833 376.5,228.167 376.5,230.5C 378.467,230.739 380.301,230.406 382,229.5C 382.667,231.167 382.667,232.833 382,234.5C 380.599,232.808 378.766,232.141 376.5,232.5C 376.012,235.711 376.679,238.544 378.5,241C 375.833,241.667 373.167,241.667 370.5,241C 371.776,238.276 372.442,235.276 372.5,232C 372.498,228.979 372.164,226.146 371.5,223.5 Z"/></g>
<g><path style="opacity:1" fill="#71a3fb" d="M 182.5,262.5 C 182.167,261.833 181.833,261.167 181.5,260.5C 188.575,259.673 190.242,256.173 186.5,250C 184.866,249.506 183.199,249.34 181.5,249.5C 180.167,256.833 180.167,264.167 181.5,271.5C 181.842,272.338 182.508,272.672 183.5,272.5C 180.375,273.479 177.042,273.813 173.5,273.5C 174.209,272.596 175.209,272.263 176.5,272.5C 176.831,264.804 176.497,257.138 175.5,249.5C 174.692,249.192 174.025,248.692 173.5,248C 178.5,247.333 183.5,247.333 188.5,248C 189.931,248.465 191.097,249.299 192,250.5C 193.863,258.471 190.696,262.471 182.5,262.5 Z"/></g>
<g><path style="opacity:1" fill="#6da1fb" d="M 213.5,273.5 C 206.978,273.823 200.645,273.49 194.5,272.5C 195.496,272.586 196.329,272.252 197,271.5C 197.831,264.144 197.665,256.811 196.5,249.5C 195.692,249.192 195.025,248.692 194.5,248C 197.833,247.333 201.167,247.333 204.5,248C 203.584,248.374 202.75,248.874 202,249.5C 201.333,256.833 201.333,264.167 202,271.5C 207.351,273.733 211.518,272.399 214.5,267.5C 214.833,267.667 215.167,267.833 215.5,268C 214.536,269.725 213.869,271.559 213.5,273.5 Z"/></g>
<g><path style="opacity:1" fill="#75a5fb" d="M 213.5,248.5 C 216.976,247.357 220.642,247.19 224.5,248C 223.484,248.519 222.818,249.353 222.5,250.5C 223.399,253.394 224.732,256.061 226.5,258.5C 228.167,255.833 229.833,253.167 231.5,250.5C 231.023,249.522 230.357,248.689 229.5,248C 232.5,247.333 235.5,247.333 238.5,248C 230.233,253.7 226.733,261.534 228,271.5C 228.925,272.047 229.758,272.713 230.5,273.5C 227.167,274.833 223.833,274.833 220.5,273.5C 221.242,272.713 222.075,272.047 223,271.5C 223.667,268.167 223.667,264.833 223,261.5C 221.19,257.743 219.19,254.076 217,250.5C 215.887,249.695 214.721,249.028 213.5,248.5 Z"/></g>
<g><path style="opacity:1" fill="#71a3fb" d="M 273.5,272.5 C 270.5,273.833 267.5,273.833 264.5,272.5C 264.833,272.5 265.167,272.5 265.5,272.5C 266.817,266.322 266.817,259.988 265.5,253.5C 264.614,254.325 264.281,255.325 264.5,256.5C 262.07,262.357 259.403,268.023 256.5,273.5C 253.06,266.955 249.894,260.288 247,253.5C 246.833,256.667 246.667,259.833 246.5,263C 246.515,266.576 247.182,269.742 248.5,272.5C 245.833,273.833 243.167,273.833 240.5,272.5C 241.496,272.586 242.329,272.252 243,271.5C 243.831,264.144 243.665,256.811 242.5,249.5C 241.692,249.192 241.025,248.692 240.5,248C 243.817,247.502 247.15,247.335 250.5,247.5C 252.042,253.789 254.375,259.789 257.5,265.5C 260.027,259.92 262.361,254.253 264.5,248.5C 267.106,247.348 269.773,247.182 272.5,248C 272,248.5 271.5,249 271,249.5C 270.333,256.833 270.333,264.167 271,271.5C 271.671,272.252 272.504,272.586 273.5,272.5 Z"/></g>
<g><path style="opacity:1" fill="#7aa8fb" d="M 302.5,248.5 C 305.976,247.357 309.642,247.19 313.5,248C 312.584,248.374 311.75,248.874 311,249.5C 310.333,255.167 310.333,260.833 311,266.5C 312.942,271.705 316.442,272.871 321.5,270C 322.126,269.25 322.626,268.416 323,267.5C 323.667,261.5 323.667,255.5 323,249.5C 322.25,248.874 321.416,248.374 320.5,248C 323.5,247.333 326.5,247.333 329.5,248C 328.584,248.374 327.75,248.874 327,249.5C 326.667,254.833 326.333,260.167 326,265.5C 324.294,272.738 319.794,275.572 312.5,274C 310.376,272.878 308.543,271.378 307,269.5C 305.745,262.941 305.078,256.274 305,249.5C 304.329,248.748 303.496,248.414 302.5,248.5 Z"/></g>
<g><path style="opacity:1" fill="#73a4fb" d="M 349.5,273.5 C 345.958,273.813 342.625,273.479 339.5,272.5C 341.465,265.24 342.132,257.573 341.5,249.5C 338.028,248.963 335.195,249.963 333,252.5C 332.506,250.866 332.34,249.199 332.5,247.5C 340.5,247.5 348.5,247.5 356.5,247.5C 356.799,249.604 356.466,251.604 355.5,253.5C 354.738,252.372 354.071,251.205 353.5,250C 351.19,249.503 348.857,249.337 346.5,249.5C 346.334,256.841 346.5,264.174 347,271.5C 347.995,272.066 348.828,272.733 349.5,273.5 Z"/></g>
<g><path style="opacity:1" fill="#6fa2fb" d="M 366.5,249.5 C 365.521,252.625 365.187,255.958 365.5,259.5C 369.5,259.5 373.5,259.5 377.5,259.5C 377.813,255.958 377.479,252.625 376.5,249.5C 375.711,249.217 375.044,248.717 374.5,248C 377.833,247.333 381.167,247.333 384.5,248C 383.584,248.374 382.75,248.874 382,249.5C 381.333,256.833 381.333,264.167 382,271.5C 382.383,272.056 382.883,272.389 383.5,272.5C 380.5,273.833 377.5,273.833 374.5,272.5C 375.496,272.586 376.329,272.252 377,271.5C 377.498,268.183 377.665,264.85 377.5,261.5C 373.833,261.5 370.167,261.5 366.5,261.5C 365.92,265.649 366.586,269.316 368.5,272.5C 365.375,273.479 362.042,273.813 358.5,273.5C 359.209,272.596 360.209,272.263 361.5,272.5C 361.666,264.826 361.5,257.159 361,249.5C 360.25,248.874 359.416,248.374 358.5,248C 362.167,247.333 365.833,247.333 369.5,248C 368.473,248.513 367.473,249.013 366.5,249.5 Z"/></g>
<g><path style="opacity:1" fill="#75a5fb" d="M 283.5,247.5 C 297.453,246.615 302.953,252.948 300,266.5C 296.475,273.235 290.975,275.735 283.5,274C 276.717,269.666 274.217,263.499 276,255.5C 278.028,252.308 280.528,249.641 283.5,247.5 Z"/></g>
<g><path style="opacity:1" fill="#f8fafe" d="M 284.5,249.5 C 290.468,248.297 294.301,250.631 296,256.5C 297.357,262.584 295.857,267.75 291.5,272C 285.543,273.054 282.043,270.554 281,264.5C 279.559,258.772 280.726,253.772 284.5,249.5 Z"/></g>
<g><path style="opacity:1" fill="#f7f9fe" d="M 181.5,249.5 C 183.199,249.34 184.866,249.506 186.5,250C 190.242,256.173 188.575,259.673 181.5,260.5C 181.5,256.833 181.5,253.167 181.5,249.5 Z"/></g>
<g><path style="opacity:1" fill="#bed4fd" d="M 366.5,249.5 C 366.5,252.5 366.5,255.5 366.5,258.5C 369.833,258.5 373.167,258.5 376.5,258.5C 376.5,255.5 376.5,252.5 376.5,249.5C 377.479,252.625 377.813,255.958 377.5,259.5C 373.5,259.5 369.5,259.5 365.5,259.5C 365.187,255.958 365.521,252.625 366.5,249.5 Z"/></g>
<g><path style="opacity:1" fill="#c5dafd" d="M 181.5,249.5 C 181.5,253.167 181.5,256.833 181.5,260.5C 181.833,261.167 182.167,261.833 182.5,262.5C 181.523,265.287 181.19,268.287 181.5,271.5C 180.167,264.167 180.167,256.833 181.5,249.5 Z"/></g>
<g><path style="opacity:1" fill="#dce8fe" d="M 265.5,272.5 C 265.821,266.974 265.488,261.64 264.5,256.5C 264.281,255.325 264.614,254.325 265.5,253.5C 266.817,259.988 266.817,266.322 265.5,272.5 Z"/></g>
<g><path style="opacity:1" fill="#abc9fd" d="M 183.5,272.5 C 184.043,272.56 184.376,272.893 184.5,273.5C 180.685,274.808 177.019,274.808 173.5,273.5C 177.042,273.813 180.375,273.479 183.5,272.5 Z"/></g>
<g><path style="opacity:1" fill="#abc9fd" d="M 194.5,272.5 C 200.645,273.49 206.978,273.823 213.5,273.5C 206.989,274.818 200.322,274.818 193.5,273.5C 193.624,272.893 193.957,272.56 194.5,272.5 Z"/></g>
<g><path style="opacity:1" fill="#aac8fd" d="M 240.5,272.5 C 243.167,273.833 245.833,273.833 248.5,272.5C 249.043,272.56 249.376,272.893 249.5,273.5C 246.167,274.833 242.833,274.833 239.5,273.5C 239.624,272.893 239.957,272.56 240.5,272.5 Z"/></g>
<g><path style="opacity:1" fill="#abc9fd" d="M 264.5,272.5 C 267.5,273.833 270.5,273.833 273.5,272.5C 274.043,272.56 274.376,272.893 274.5,273.5C 270.833,274.833 267.167,274.833 263.5,273.5C 263.624,272.893 263.957,272.56 264.5,272.5 Z"/></g>
<g><path style="opacity:1" fill="#bed5fd" d="M 339.5,272.5 C 342.625,273.479 345.958,273.813 349.5,273.5C 345.981,274.808 342.315,274.808 338.5,273.5C 338.624,272.893 338.957,272.56 339.5,272.5 Z"/></g>
<g><path style="opacity:1" fill="#bcd4fd" d="M 368.5,272.5 C 369.043,272.56 369.376,272.893 369.5,273.5C 365.685,274.808 362.019,274.808 358.5,273.5C 362.042,273.813 365.375,273.479 368.5,272.5 Z"/></g>
<g><path style="opacity:1" fill="#b1ccfd" d="M 374.5,272.5 C 377.5,273.833 380.5,273.833 383.5,272.5C 384.043,272.56 384.376,272.893 384.5,273.5C 380.833,274.833 377.167,274.833 373.5,273.5C 373.624,272.893 373.957,272.56 374.5,272.5 Z"/></g>
</svg>
