<?xml version="1.0" encoding="UTF-8"?>
<!DOCTYPE svg PUBLIC "-//W3C//DTD SVG 1.1//EN" "http://www.w3.org/Graphics/SVG/1.1/DTD/svg11.dtd">
<svg xmlns="http://www.w3.org/2000/svg" version="1.1" width="500px" height="500px" style="shape-rendering:geometricPrecision; text-rendering:geometricPrecision; image-rendering:optimizeQuality; fill-rule:evenodd; clip-rule:evenodd" xmlns:xlink="http://www.w3.org/1999/xlink">
<g><path style="opacity:1" fill="#fefefe" d="M -0.5,-0.5 C 166.167,-0.5 332.833,-0.5 499.5,-0.5C 499.5,166.167 499.5,332.833 499.5,499.5C 332.833,499.5 166.167,499.5 -0.5,499.5C -0.5,332.833 -0.5,166.167 -0.5,-0.5 Z"/></g>
<g><path style="opacity:1" fill="#8e9193" d="M 122.5,184.5 C 124.39,184.297 125.89,184.963 127,186.5C 129.667,190.5 132.333,194.5 135,198.5C 135.499,193.845 135.666,189.179 135.5,184.5C 136.5,184.5 137.5,184.5 138.5,184.5C 138.5,191.167 138.5,197.833 138.5,204.5C 136.61,204.703 135.11,204.037 134,202.5C 131.333,198.5 128.667,194.5 126,190.5C 125.501,195.155 125.334,199.821 125.5,204.5C 124.5,204.5 123.5,204.5 122.5,204.5C 122.5,197.833 122.5,191.167 122.5,184.5 Z"/></g>
<g><path style="opacity:1" fill="#949698" d="M 208.5,184.5 C 212.5,184.5 216.5,184.5 220.5,184.5C 220.5,185.5 220.5,186.5 220.5,187.5C 217.833,187.5 215.167,187.5 212.5,187.5C 212.5,189.167 212.5,190.833 212.5,192.5C 214.833,192.5 217.167,192.5 219.5,192.5C 219.5,193.833 219.5,195.167 219.5,196.5C 217.167,196.5 214.833,196.5 212.5,196.5C 212.5,198.167 212.5,199.833 212.5,201.5C 215.167,201.5 217.833,201.5 220.5,201.5C 220.5,202.5 220.5,203.5 220.5,204.5C 216.5,204.5 212.5,204.5 208.5,204.5C 208.5,197.833 208.5,191.167 208.5,184.5 Z"/></g>
<g><path style="opacity:1" fill="#8f9294" d="M 236.5,184.5 C 240.182,184.335 243.848,184.501 247.5,185C 251.574,189.587 251.241,193.92 246.5,198C 247.62,199.737 248.62,201.571 249.5,203.5C 249,203.833 248.5,204.167 248,204.5C 245.479,201.968 243.312,199.134 241.5,196C 247.462,195.411 248.796,192.744 245.5,188C 243.527,187.505 241.527,187.338 239.5,187.5C 239.5,193.167 239.5,198.833 239.5,204.5C 238.5,204.5 237.5,204.5 236.5,204.5C 236.5,197.833 236.5,191.167 236.5,184.5 Z"/></g>
<g><path style="opacity:1" fill="#8a8c8f" d="M 295.5,184.5 C 296.5,184.5 297.5,184.5 298.5,184.5C 298.5,191.167 298.5,197.833 298.5,204.5C 297.5,204.5 296.5,204.5 295.5,204.5C 295.5,197.833 295.5,191.167 295.5,184.5 Z"/></g>
<g><path style="opacity:1" fill="#96999a" d="M 155.5,184.5 C 156.833,184.5 158.167,184.5 159.5,184.5C 159.5,191.167 159.5,197.833 159.5,204.5C 158.167,204.5 156.833,204.5 155.5,204.5C 155.5,197.833 155.5,191.167 155.5,184.5 Z"/></g>
<g><path style="opacity:1" fill="#8e9193" d="M 406.5,184.5 C 407.376,184.369 408.043,184.702 408.5,185.5C 406.078,187.286 406.078,188.952 408.5,190.5C 407.022,193.632 406.022,196.965 405.5,200.5C 404.978,196.965 403.978,193.632 402.5,190.5C 404.019,188.576 405.353,186.576 406.5,184.5 Z"/></g>
<g><path style="opacity:1" fill="#929596" d="M 268.5,184.5 C 272.849,183.577 276.183,184.91 278.5,188.5C 278,188.833 277.5,189.167 277,189.5C 274.79,187.889 272.29,187.222 269.5,187.5C 269.343,188.873 269.51,190.207 270,191.5C 272.707,192.437 275.207,193.77 277.5,195.5C 279.36,203.138 276.36,205.971 268.5,204C 266.393,202.736 265.393,200.903 265.5,198.5C 266.833,198.5 268.167,198.5 269.5,198.5C 269.5,199.5 269.5,200.5 269.5,201.5C 271.199,201.66 272.866,201.494 274.5,201C 275.022,200.439 275.355,199.772 275.5,199C 272.897,196.661 270.063,194.494 267,192.5C 266.109,189.502 266.609,186.836 268.5,184.5 Z"/></g>
<g><path style="opacity:1" fill="#8f9193" d="M 313.5,184.5 C 317.833,184.5 322.167,184.5 326.5,184.5C 326.5,185.5 326.5,186.5 326.5,187.5C 324.833,187.5 323.167,187.5 321.5,187.5C 321.5,193.167 321.5,198.833 321.5,204.5C 320.5,204.5 319.5,204.5 318.5,204.5C 318.5,198.833 318.5,193.167 318.5,187.5C 316.833,187.5 315.167,187.5 313.5,187.5C 313.5,186.5 313.5,185.5 313.5,184.5 Z"/></g>
<g><path style="opacity:1" fill="#929596" d="M 175.5,184.5 C 176.822,184.33 177.989,184.663 179,185.5C 180.466,190.232 182.133,194.898 184,199.5C 185.867,194.898 187.534,190.232 189,185.5C 190.011,184.663 191.178,184.33 192.5,184.5C 190.354,190.802 188.188,197.135 186,203.5C 184.667,204.833 183.333,204.833 182,203.5C 179.812,197.135 177.646,190.802 175.5,184.5 Z"/></g>
<g><path style="opacity:1" fill="#8f9294" d="M 341.5,184.5 C 342.822,184.33 343.989,184.663 345,185.5C 346.333,188.167 347.667,190.833 349,193.5C 350.333,190.833 351.667,188.167 353,185.5C 354.183,184.269 355.349,184.269 356.5,185.5C 352.454,191.242 350.454,197.575 350.5,204.5C 349.5,204.5 348.5,204.5 347.5,204.5C 347.664,201.813 347.497,199.146 347,196.5C 345.251,192.399 343.417,188.399 341.5,184.5 Z"/></g>
<g><path style="opacity:1" fill="#97999b" d="M 388.5,188.5 C 395.369,188.538 397.869,191.871 396,198.5C 390.344,203.129 386.511,201.963 384.5,195C 384.845,192.169 386.178,190.003 388.5,188.5 Z"/></g>
<g><path style="opacity:1" fill="#f7f7f7" d="M 388.5,191.5 C 394.158,190.679 395.825,192.846 393.5,198C 387.013,199.158 385.347,196.991 388.5,191.5 Z"/></g>
<g><path style="opacity:1" fill="#919496" d="M 91.5,184.5 C 92.5,184.5 93.5,184.5 94.5,184.5C 94.334,189.844 94.5006,195.177 95,200.5C 97,201.833 99,201.833 101,200.5C 101.499,195.177 101.666,189.844 101.5,184.5C 102.5,184.5 103.5,184.5 104.5,184.5C 104.666,190.176 104.499,195.843 104,201.5C 100,205.5 96,205.5 92,201.5C 91.5006,195.843 91.3339,190.176 91.5,184.5 Z"/></g>
<g><path style="opacity:1" fill="#c8122f" d="M 88.5,217.5 C 91.5,217.5 94.5,217.5 97.5,217.5C 97.1765,224.022 97.5098,230.355 98.5,236.5C 104.167,236.5 109.833,236.5 115.5,236.5C 116.49,230.355 116.823,224.022 116.5,217.5C 119.5,217.5 122.5,217.5 125.5,217.5C 125.5,233.5 125.5,249.5 125.5,265.5C 122.5,265.5 119.5,265.5 116.5,265.5C 116.5,258.833 116.5,252.167 116.5,245.5C 110.167,245.5 103.833,245.5 97.5,245.5C 97.5,252.5 97.5,259.5 97.5,266.5C 94.5,266.5 91.5,266.5 88.5,266.5C 88.5,250.167 88.5,233.833 88.5,217.5 Z"/></g>
<g><path style="opacity:1" fill="#e17b8b" d="M 125.5,217.5 C 122.5,217.5 119.5,217.5 116.5,217.5C 116.823,224.022 116.49,230.355 115.5,236.5C 115.5,229.833 115.5,223.167 115.5,216.5C 119.042,216.187 122.375,216.521 125.5,217.5 Z"/></g>
<g><path style="opacity:1" fill="#c91a32" d="M 153.5,216.5 C 177.109,215.076 187.609,226.076 185,249.5C 177,265.726 164.5,270.559 147.5,264C 135.199,254.794 132.033,242.961 138,228.5C 142.02,222.919 147.186,218.919 153.5,216.5 Z"/></g>
<g><path style="opacity:1" fill="#c8142f" d="M 195.5,217.5 C 198.5,217.5 201.5,217.5 204.5,217.5C 204.333,229.171 204.5,240.838 205,252.5C 209.858,260.408 214.858,260.408 220,252.5C 220.5,240.838 220.667,229.171 220.5,217.5C 223.5,217.5 226.5,217.5 229.5,217.5C 229.944,230.907 229.444,244.24 228,257.5C 224.46,264.021 218.96,267.021 211.5,266.5C 203.432,266.886 198.266,263.219 196,255.5C 195.5,242.838 195.333,230.171 195.5,217.5 Z"/></g>
<g><path style="opacity:1" fill="#c91a33" d="M 249.5,216.5 C 261.823,214.466 268.823,219.466 270.5,231.5C 267.428,231.817 264.428,231.484 261.5,230.5C 259.417,224.427 255.75,223.094 250.5,226.5C 249.223,229.034 249.223,231.534 250.5,234C 254.419,235.862 258.419,237.529 262.5,239C 273.413,246.067 274.413,254.4 265.5,264C 258.473,267.282 251.473,267.282 244.5,264C 240.328,260.497 238.328,255.997 238.5,250.5C 241.833,250.5 245.167,250.5 248.5,250.5C 249.061,257.783 252.728,259.95 259.5,257C 262.343,253.381 262.01,250.048 258.5,247C 254.068,245.48 249.735,243.814 245.5,242C 236.465,231.794 237.799,223.294 249.5,216.5 Z"/></g>
<g><path style="opacity:1" fill="#c8122f" d="M 307.5,225.5 C 303.833,225.5 300.167,225.5 296.5,225.5C 296.5,238.833 296.5,252.167 296.5,265.5C 293.5,265.5 290.5,265.5 287.5,265.5C 287.829,251.99 287.496,238.656 286.5,225.5C 283.167,225.5 279.833,225.5 276.5,225.5C 276.5,222.833 276.5,220.167 276.5,217.5C 286.833,217.5 297.167,217.5 307.5,217.5C 307.5,220.167 307.5,222.833 307.5,225.5 Z"/></g>
<g><path style="opacity:1" fill="#c91b33" d="M 328.5,216.5 C 347.593,214.515 358.593,222.848 361.5,241.5C 360.802,254.072 354.469,262.238 342.5,266C 318.839,268.005 308.339,257.172 311,233.5C 314.207,225.006 320.04,219.339 328.5,216.5 Z"/></g>
<g><path style="opacity:1" fill="#c81530" d="M 399.5,246.5 C 399.987,247.473 400.487,248.473 401,249.5C 401.5,238.839 401.667,228.172 401.5,217.5C 404.5,217.5 407.5,217.5 410.5,217.5C 410.5,233.833 410.5,250.167 410.5,266.5C 407.552,266.777 404.719,266.444 402,265.5C 395.337,255.345 388.503,245.345 381.5,235.5C 381.217,234.711 380.717,234.044 380,233.5C 379.5,244.495 379.333,255.495 379.5,266.5C 376.5,266.5 373.5,266.5 370.5,266.5C 370.5,250.167 370.5,233.833 370.5,217.5C 373.518,217.335 376.518,217.502 379.5,218C 386.066,227.654 392.732,237.154 399.5,246.5 Z"/></g>
<g><path style="opacity:1" fill="#f5d7dc" d="M 401.5,217.5 C 401.667,228.172 401.5,238.839 401,249.5C 400.487,248.473 399.987,247.473 399.5,246.5C 400.167,236.833 400.833,227.167 401.5,217.5 Z"/></g>
<g><path style="opacity:1" fill="#e48997" d="M 88.5,217.5 C 91.6248,216.521 94.9581,216.187 98.5,216.5C 98.5,223.167 98.5,229.833 98.5,236.5C 97.5098,230.355 97.1765,224.022 97.5,217.5C 94.5,217.5 91.5,217.5 88.5,217.5 Z"/></g>
<g><path style="opacity:1" fill="#fefafa" d="M 157.5,224.5 C 172.428,225.922 178.261,233.922 175,248.5C 170.857,256.321 164.357,259.487 155.5,258C 144.211,251.35 141.711,242.183 148,230.5C 150.843,227.837 154.009,225.837 157.5,224.5 Z"/></g>
<g><path style="opacity:1" fill="#fefafa" d="M 332.5,224.5 C 343.758,224.447 350.092,229.947 351.5,241C 350.642,253.526 343.976,259.192 331.5,258C 323.578,255.171 319.578,249.504 319.5,241C 320.407,232.638 324.74,227.138 332.5,224.5 Z"/></g>
<g><path style="opacity:1" fill="#d75368" d="M 286.5,225.5 C 287.496,238.656 287.829,251.99 287.5,265.5C 290.5,265.5 293.5,265.5 296.5,265.5C 296.5,265.833 296.5,266.167 296.5,266.5C 293.167,266.5 289.833,266.5 286.5,266.5C 286.5,252.833 286.5,239.167 286.5,225.5 Z"/></g>
<g><path style="opacity:1" fill="#f1c2c9" d="M 307.5,225.5 C 304.375,226.479 301.042,226.813 297.5,226.5C 297.829,240.01 297.496,253.344 296.5,266.5C 296.5,266.167 296.5,265.833 296.5,265.5C 296.5,252.167 296.5,238.833 296.5,225.5C 300.167,225.5 303.833,225.5 307.5,225.5 Z"/></g>
<g><path style="opacity:1" fill="#eba9b3" d="M 381.5,235.5 C 380.833,245.833 380.167,256.167 379.5,266.5C 379.333,255.495 379.5,244.495 380,233.5C 380.717,234.044 381.217,234.711 381.5,235.5 Z"/></g>
<g><path style="opacity:1" fill="#e58b98" d="M 125.5,217.5 C 126.496,233.658 126.83,249.991 126.5,266.5C 122.833,266.5 119.167,266.5 115.5,266.5C 115.5,259.833 115.5,253.167 115.5,246.5C 109.833,246.5 104.167,246.5 98.5,246.5C 98.824,253.354 98.4907,260.021 97.5,266.5C 97.5,259.5 97.5,252.5 97.5,245.5C 103.833,245.5 110.167,245.5 116.5,245.5C 116.5,252.167 116.5,258.833 116.5,265.5C 119.5,265.5 122.5,265.5 125.5,265.5C 125.5,249.5 125.5,233.5 125.5,217.5 Z"/></g>
</svg>
